<?xml version="1.0" encoding="utf-8"?>
<!-- Generator: Adobe Illustrator 24.0.2, SVG Export Plug-In . SVG Version: 6.00 Build 0)  -->
<svg version="1.1" id="Layer_1" xmlns="http://www.w3.org/2000/svg" xmlns:xlink="http://www.w3.org/1999/xlink" x="0px" y="0px"
	 viewBox="0 0 500 200" style="enable-background:new 0 0 500 200;" xml:space="preserve">
<style type="text/css">
	.st0{clip-path:url(#SVGID_2_);}
	.st1{clip-path:url(#SVGID_4_);}
	.st2{fill-rule:evenodd;clip-rule:evenodd;fill:#010101;}
</style>
<g>
	<defs>
		<rect id="SVGID_1_" x="-120.54" y="-123" width="742.06" height="445.24"/>
	</defs>
	<clipPath id="SVGID_2_">
		<use xlink:href="#SVGID_1_"  style="overflow:visible;"/>
	</clipPath>
	<g class="st0">
		<g>
			<defs>
				<rect id="SVGID_3_" x="-120.54" y="-123" width="742.06" height="445.24"/>
			</defs>
			<clipPath id="SVGID_4_">
				<use xlink:href="#SVGID_3_"  style="overflow:visible;"/>
			</clipPath>
			<g class="st1">
				<path class="st2" d="M458.69,91.6v1.04c0,13.85,0,27.64,0,41.38c-0.07,1.24,0.47,2.44,1.45,3.21c1.31,1.04,2.46,2.2,3.71,3.32
					c0.65,0.48,1,1.27,0.92,2.08c-0.29,1.03-1.21,1.75-2.29,1.78h-18.25c-0.38,0.05-0.77,0.05-1.16,0c-1.1-0.07-1.93-1.01-1.86-2.11
					c0.03-0.41,0.18-0.81,0.44-1.13c0.62-0.74,1.45-1.4,2.14-2.11c0.59-0.63,1.21-1.23,1.87-1.78c0.71-0.56,1.12-1.41,1.13-2.32
					c0-0.42,0-0.86,0-1.28V65.63c0-0.39,0-0.77,0-1.16c-0.05-1.47-0.98-2.76-2.34-3.29c-0.77-0.52-1.41-1.21-1.87-2.02
					c-0.24-0.39-0.68-0.68-0.98-1.07c-1.1-1.42,0-3.21,1.99-3.32h16.3c2.11,0,3.18,0.56,3.74,2.26c0.56,1.69,0.92,3.32,1.34,4.99
					c2.63,10.23,5.26,20.47,7.9,30.72c0.07,0.27,0.21,0.52,0.42,0.71c0.01-0.27,0.01-0.53,0-0.8c0-9.29,0-18.61,0-27.9
					c0.03-1.04-0.45-2.04-1.28-2.67c-1.37-1.13-2.64-2.34-3.95-3.5c-0.56-0.44-0.9-1.1-0.92-1.81c0.19-1.14,1.16-1.98,2.32-1.99
					h18.97c1.81,0,2.97,1.66,2.11,2.97c-0.42,0.77-1.42,1.34-1.6,1.96c-0.11,0.56-0.46,1.04-0.95,1.34
					c-1.57,0.42-2.74,1.74-2.97,3.35c0,0.45,0,0.89,0,1.34v75.13c0,0.42,0,0.83,0,1.25c-0.2,1.45-1.52,2.47-2.97,2.32h-6.35
					c-1.06-0.01-2.06-0.45-2.79-1.22c-0.76-0.76-1.3-1.71-1.54-2.76c-2.16-8.43-4.33-16.86-6.53-25.29
					c-1.93-7.57-3.89-15.17-5.94-22.74c-0.07-0.28-0.16-0.56-0.27-0.83h-0.24"/>
				<path class="st2" d="M288.01,98.7c0,4.45-0.21,8.9-0.47,13.36c-0.26,5.92-1.2,11.8-2.79,17.51c-0.85,2.95-2.12,5.76-3.77,8.34
					c-1.1,1.64-2.45,3.11-4.01,4.33c-6.05,4.33-14.22,4.19-20.12-0.33c-1.77-1.49-3.26-3.29-4.39-5.31
					c-1.76-3.22-3.03-6.68-3.77-10.27c-1.07-4.88-1.72-9.85-1.96-14.84c-0.36-5.94-0.47-11.87-0.36-17.81
					c0.02-6.39,0.63-12.77,1.81-19.06c0.73-3.87,2.01-7.62,3.8-11.13c1.13-2.24,2.67-4.26,4.54-5.94
					c6.22-5.12,15.22-5.06,21.37,0.15c2.23,2.05,4.02,4.53,5.25,7.3c1.55,3.53,2.64,7.24,3.27,11.04
					c1.02,5.88,1.52,11.84,1.51,17.81v4.72L288.01,98.7z M267.23,136.46c0.4-0.37,0.76-0.78,1.07-1.22c0.5-0.96,0.94-1.95,1.31-2.97
					c0.98-3.25,1.6-6.59,1.84-9.97c0.39-4.78,0.74-9.56,0.89-14.34c0.41-9.9,0.19-19.81-0.65-29.68c-0.23-3.28-0.78-6.53-1.63-9.71
					c-0.47-1.56-1.06-3.09-1.75-4.57c-0.23-0.6-0.72-1.06-1.34-1.25c-0.64,0.28-1.15,0.8-1.4,1.45c-0.59,1.23-1.09,2.5-1.48,3.8
					c-1.27,4.85-1.96,9.83-2.08,14.84c-0.27,6.11-0.3,12.26-0.36,18.37c-0.06,6.11,0.21,12.11,0.71,18.17
					c0.25,3.5,0.76,6.99,1.51,10.42c0.43,1.64,0.97,3.24,1.6,4.81c0.29,0.79,0.88,1.43,1.63,1.78"/>
				<path class="st2" d="M172.99,94.13c0.54,0.27,1.2,0.05,1.47-0.5c0.02-0.03,0.03-0.06,0.04-0.1c1.42-2.43,2.97-4.84,4.36-7.27
					c0.19-0.33,0.41-0.65,0.65-0.95c0.64-0.73,1.63-1.05,2.58-0.83c0.9,0.05,1.66,0.69,1.87,1.57c0.05,0.31,0.05,0.63,0,0.95v24.49
					c0.16,1.22-0.7,2.34-1.92,2.49c0,0,0,0-0.01,0c-1.29,0.26-2.59-0.36-3.21-1.51c-1.51-2.64-2.97-5.31-4.48-8.01
					c-0.27-0.5-0.56-0.86-0.74-0.59v32.41c-0.3,0,0,0,0.3,0h4.72c1.75,0,2.14-0.24,2.61-1.6l7.21-21.37
					c0.11-0.35,0.25-0.68,0.42-1.01c0.63-1.11,1.89-1.7,3.15-1.45c1.18,0.12,2.1,1.1,2.14,2.29c0,1.1,0,2.23,0,3.32v25.68
					c0.03,0.33,0.03,0.65,0,0.98c-0.26,1.41-1.54,2.39-2.97,2.26c-0.29-0.06-0.57-0.17-0.83-0.33h-36.12
					c-0.99,0.06-1.93-0.46-2.4-1.34c-0.5-0.79-0.29-1.84,0.47-2.37c1.51-1.25,2.97-2.52,4.57-3.71c0.8-0.51,1.27-1.4,1.25-2.34
					c0-0.3,0-0.59,0-0.89V64c-0.01-0.26-0.01-0.51,0-0.77c0.01-1.01-0.49-1.97-1.34-2.52c-1.51-1.1-2.97-2.32-4.33-3.5
					c-0.89-0.52-1.19-1.67-0.67-2.56c0-0.01,0.01-0.02,0.01-0.02c0.46-0.79,1.31-1.29,2.23-1.31h36.72c0.47-0.04,0.95-0.04,1.42,0
					c1.15,0.24,2.04,1.14,2.29,2.29c0,0.3,0,0.59,0,0.89v29.47c-0.01,1.03-0.72,1.92-1.72,2.17c-1.09,0.42-2.32,0.16-3.15-0.65
					c-0.42-0.42-0.73-0.92-0.92-1.48c-2.49-7.12-4.93-14.25-7.39-21.37c-0.65-1.87-0.8-1.99-3.18-1.99h-4.01h-1.1V94.13z"/>
				<path class="st2" d="M414.16,62.87v31.26c1.63,0.18,1.63,0.18,2.08-0.53c1.48-2.46,2.97-4.93,4.45-7.39
					c0.21-0.36,0.45-0.69,0.71-1.01c0.64-0.63,1.56-0.88,2.43-0.68c0.86,0.08,1.58,0.68,1.81,1.51c0.05,0.39,0.05,0.79,0,1.19v24.07
					c0.03,0.3,0.03,0.59,0,0.89c-0.18,0.88-0.89,1.54-1.78,1.66c-0.95,0.25-1.96-0.04-2.64-0.74c-0.31-0.36-0.58-0.76-0.8-1.19
					c-1.42-2.52-2.97-5.05-4.24-7.57c-0.42-0.71-0.45-0.71-1.34-0.56v32.65h0.68c1.75,0,3.47,0,5.22,0c1.75,0,1.87-0.33,2.26-1.45
					l7.3-21.55c0.1-0.38,0.25-0.75,0.45-1.1c0.64-1,1.8-1.52,2.97-1.34c1.15,0.11,2.06,1.04,2.14,2.2c0.01,0.23,0.01,0.46,0,0.68
					v28.41c0.02,0.49-0.04,0.98-0.18,1.45c-0.45,1.1-1.55,1.79-2.73,1.72c-0.27,0.04-0.55-0.08-0.71-0.3h-35.35
					c-0.25,0.24-0.61,0.34-0.95,0.27c-0.94-0.01-1.8-0.53-2.23-1.37c-0.41-0.74-0.22-1.67,0.45-2.2c1.34-1.29,2.75-2.51,4.21-3.65
					c1.12-0.74,1.76-2.02,1.69-3.35c0-23.75,0-47.2,0-70.79c0-0.33,0-0.65,0-0.98c-0.05-0.76-0.44-1.46-1.07-1.9
					c-1.51-1.16-2.97-2.34-4.39-3.56c-0.45-0.37-0.78-0.87-0.95-1.42c-0.3-1.22,0.83-2.34,2.32-2.49h36.63
					c1.47-0.16,2.86,0.69,3.38,2.08c0.03,0.3,0.03,0.59,0,0.89v29c0.01,1.1-0.79,2.03-1.87,2.2c-1.21,0.35-2.5-0.1-3.24-1.13
					c-0.23-0.34-0.4-0.71-0.5-1.1l-7.3-21.04c0,0,0-0.24,0-0.36c-0.47-1.28-0.83-1.51-2.43-1.54h-4.75h-1.57"/>
				<path class="st2" d="M365.19,103.92v31.85c-0.03,0.71,0.37,1.36,1.01,1.66c1.51,0.92,2.97,1.9,4.42,2.97
					c0.54,0.37,1.05,0.78,1.51,1.25c0.66,0.58,0.78,1.56,0.3,2.29c-0.48,0.84-1.41,1.33-2.37,1.25h-23.75
					c-0.95,0-1.81-0.54-2.23-1.4c-0.43-0.74-0.24-1.68,0.45-2.2c1.51-1.28,2.97-2.55,4.63-3.8c0.8-0.51,1.27-1.4,1.25-2.34
					c0-0.39,0-0.77,0-1.16V64.27c0-0.36,0-0.71,0-1.07c0.02-0.91-0.43-1.76-1.19-2.26c-1.57-1.22-3.15-2.43-4.6-3.74
					c-1.45-1.31-0.74-3.15,1.19-3.62c0.35-0.03,0.69-0.03,1.04,0c7.42,0,14.84,0,22.26,0c1.9,0.04,3.78,0.26,5.64,0.65
					c3.93,0.71,7.43,2.9,9.8,6.11c1.82,2.52,3.04,5.42,3.56,8.49c1.22,6.33,1.15,12.84-0.21,19.15c-0.62,3.01-1.84,5.87-3.59,8.4
					c-2.64,3.8-6.71,6.37-11.28,7.12c-1.56,0.25-3.14,0.41-4.72,0.47c-0.95,0-1.9,0-2.97,0 M365.33,95.26h2.43
					c1.3,0.02,2.53-0.63,3.24-1.72c0.4-0.66,0.73-1.36,1.01-2.08c0.7-1.99,1.08-4.07,1.13-6.17c0.18-2.97,0.24-5.94,0.27-8.9
					c0.08-3.09-0.24-6.17-0.95-9.17c-0.29-0.96-0.67-1.88-1.16-2.76c-0.36-0.65-0.97-1.12-1.69-1.31c-1.39-0.37-2.84-0.47-4.27-0.3
					L365.33,95.26z"/>
				<path class="st2" d="M314.73,104.31v31.2c-0.11,1.1,0.5,2.14,1.51,2.58c1.35,0.77,2.66,1.61,3.92,2.52
					c0.55,0.36,1.06,0.78,1.51,1.25c0.64,0.6,0.75,1.58,0.27,2.32c-0.49,0.77-1.34,1.23-2.26,1.22h-23.15
					c-1.93,0-2.97-0.98-2.97-2.4c0.07-0.55,0.37-1.05,0.83-1.37c1.45-1.22,2.97-2.43,4.36-3.59c0.82-0.57,1.3-1.52,1.28-2.52v-1.19
					c0-23.19,0-46.38,0-69.58c0-3.29-0.21-2.46-2.97-4.81c-0.86-0.77-1.75-1.45-2.67-2.17c-0.93-0.53-1.26-1.71-0.74-2.64
					c0.57-0.96,1.66-1.48,2.76-1.34h21.97c2.93-0.04,5.84,0.48,8.58,1.54c3.29,1.26,6.04,3.64,7.78,6.71
					c1.54,2.76,2.55,5.78,2.97,8.9c0.47,3.31,0.62,6.66,0.45,10c-0.06,4.57-1.07,9.08-2.97,13.24c-1.05,2.26-2.56,4.28-4.42,5.94
					c-3.02,2.55-6.8,4.03-10.75,4.21c-1.69,0-3.35,0-5.25,0.21 M314.75,95.64h2.97c0.95-0.06,1.83-0.51,2.43-1.25
					c0.35-0.42,0.64-0.89,0.86-1.4c0.51-1.32,0.91-2.68,1.19-4.07c0.6-3.8,0.83-7.65,0.68-11.49c0.07-3.21-0.23-6.42-0.89-9.56
					c-0.28-0.97-0.65-1.9-1.13-2.79c-0.6-1.07-1.74-1.74-2.97-1.72c-1.01,0-2.02,0-3.12,0L314.75,95.64z"/>
				<path class="st2" d="M79.37,125.06h-8.9c-0.57,2.36-0.86,4.78-0.86,7.21c0.01,0.81-0.13,1.62-0.42,2.37
					c-1.1,2.97-1.63,3.68,1.72,5.05c0.37,0.19,0.64,0.52,0.74,0.92c0.18,0.68,0.95,1.1,1.42,1.66c1.19,1.4,0.21,3.29-1.84,3.53
					H54.38c-1.33,0.25-2.63-0.58-2.97-1.9c-0.11-0.57,0.05-1.17,0.45-1.6c0.28-0.36,0.6-0.7,0.95-1.01
					c1.19-0.98,2.34-1.99,3.56-2.97c0.59-0.43,0.97-1.09,1.07-1.81c0.8-5.08,1.63-10.18,2.43-15.26l2.76-16.74l2.34-13.8
					c0.83-5.11,1.69-10.24,2.52-15.35l2.23-13.8l0.89-5.37c0.06-0.37,0.18-0.73,0.36-1.07c0.51-0.99,1.56-1.57,2.67-1.48h5.11
					c1.26-0.11,2.45,0.59,2.97,1.75c0.17,0.4,0.3,0.82,0.39,1.25c0.74,4.33,1.48,8.67,2.2,13s1.51,8.9,2.26,13.3l2.49,14.57
					c0.86,4.99,1.69,9.97,2.55,14.84s1.63,9.71,2.46,14.54c0.53,2.97,1.07,6.2,1.57,9.29c0.16,0.94,0.71,1.77,1.51,2.29
					c1.16,0.77,2.26,1.63,3.35,2.49c0.48,0.36,0.91,0.79,1.28,1.28c1.01,1.51-0.18,3.27-2.26,3.38H78.51
					c-0.99,0.03-1.92-0.49-2.4-1.37c-0.42-0.77-0.26-1.72,0.39-2.32c0.23-0.24,0.47-0.46,0.74-0.65c1.16-0.98,2.32-1.99,3.53-2.97
					c0.51-0.35,0.76-0.97,0.65-1.57c-0.47-2.67-0.92-5.34-1.37-8.01c-0.24-1.28-0.45-2.52-0.68-3.89 M74.89,98.49h-0.24
					c-0.93,5.46-1.81,10.93-2.64,16.41c1.88,0.21,3.79,0.21,5.67,0c-0.95-5.46-1.87-10.89-2.79-16.36"/>
				<path class="st2" d="M125.5,62.84V94.1c0.83,0.33,1.1,0,1.37-0.56l4.01-7.01c0.23-0.43,0.51-0.82,0.83-1.19
					c0.76-0.8,1.91-1.11,2.97-0.8c1.01,0.19,1.74,1.05,1.78,2.08c0.01,0.23,0.01,0.46,0,0.68v23.75c0,0.33,0,0.65,0,0.98
					c-0.14,0.91-0.85,1.63-1.75,1.78c-0.95,0.26-1.97-0.03-2.64-0.74c-0.29-0.34-0.55-0.71-0.77-1.1c-1.48-2.55-2.97-5.14-4.42-7.72
					c-0.18-0.49-0.72-0.75-1.21-0.57c-0.05,0.02-0.1,0.04-0.15,0.07c-0.02,0.3-0.02,0.59,0,0.89v30.6c0,0.27,0,0.53,0,0.8
					c0.03,0.67,0.41,1.27,1.01,1.57c1.45,0.89,2.97,1.84,4.27,2.76c0.49,0.32,0.96,0.67,1.4,1.07c0.81,0.58,1.05,1.69,0.53,2.55
					c-0.56,0.91-1.6,1.42-2.67,1.31h-22.97c-1.29,0.23-2.55-0.51-2.97-1.75c-0.21-0.78,0.08-1.61,0.74-2.08
					c1.45-1.19,2.97-2.43,4.39-3.56c0.84-0.56,1.33-1.51,1.31-2.52c0-0.42,0-0.86,0-1.28V64.92c0-2.64,0-2.64-2.32-4.51l-3.18-2.67
					c-0.89-0.55-1.19-1.7-0.68-2.61c0.55-0.96,1.63-1.5,2.73-1.37h21.97c4.69,0,9.38,0,14.07,0c1.81,0,3.56,0.83,3.56,2.97
					c0,1.63,0,3.27,0,4.9c0,7.92,0,15.75,0,23.51c0.03,0.36,0.03,0.71,0,1.07c-0.34,1.44-1.78,2.32-3.21,1.99
					c-0.26-0.06-0.5-0.16-0.73-0.29c-0.83-0.34-1.46-1.04-1.72-1.9l-3.32-9.26l-4.16-12.35c-0.45-1.31-0.83-1.54-2.4-1.54H125.5"/>
				<path class="st2" d="M48,71.15c0,4.63,0,9.26,0,13.86c0.01,0.52-0.07,1.05-0.24,1.54c-0.37,0.92-1.27,1.51-2.26,1.51
					c-1,0.18-2.01-0.23-2.61-1.04c-0.37-0.59-0.62-1.24-0.74-1.93c-0.8-4.95-2.16-9.79-4.07-14.43c-0.75-1.6-1.6-3.15-2.55-4.63
					c-0.58-0.84-1.28-1.59-2.08-2.23c-0.51-0.39-1.08-0.68-1.69-0.86c-0.74-0.29-1.59-0.1-2.14,0.47c-0.49,0.53-0.9,1.13-1.22,1.78
					c-0.86,1.88-1.41,3.88-1.63,5.94c-0.7,5.14-1.05,10.31-1.07,15.49c-0.21,8.76-0.18,17.48,0.18,26.24
					c0.08,4.89,0.54,9.76,1.37,14.57c0.37,1.78,0.85,3.54,1.45,5.25c0.32,0.87,0.81,1.68,1.42,2.37c1.21,1.4,3.33,1.56,4.73,0.34
					c0.12-0.11,0.24-0.22,0.34-0.34c0.82-0.85,1.54-1.8,2.14-2.82c1.4-2.72,2.4-5.63,2.97-8.64c0.62-2.97,1.1-5.7,1.57-8.55
					c0.14-1.04,0.91-1.89,1.93-2.14c1.52-0.61,3.25,0.13,3.86,1.65c0.08,0.21,0.14,0.42,0.18,0.64c0,1.37,0,2.73,0,4.13
					c-0.08,3.64-0.46,7.26-1.13,10.83c-0.52,2.87-1.52,5.63-2.97,8.16c-1.55,2.73-4.01,4.83-6.95,5.94
					c-5.64,2.31-12.1,1.25-16.71-2.73c-2.33-2.27-4.15-5.01-5.34-8.04c-1.39-3.53-2.39-7.2-2.97-10.95
					c-1.22-7.42-1.8-14.92-1.72-22.44c0-3.71,0-7.42,0-11.1c0.11-6.35,0.97-12.67,2.55-18.82c0.74-2.82,1.87-5.53,3.35-8.04
					c1.13-1.96,2.61-3.69,4.36-5.11c2.83-2.23,6.35-3.39,9.94-3.29c1.83,0.02,3.62,0.46,5.25,1.28c0.95,0.45,1.84,1.01,2.76,1.51
					c0.92,0.5,1.19,0.5,1.96,0c0.77-0.5,0.83-0.8,1.31-1.13c0.63-0.51,1.32-0.94,2.05-1.31c1.48-0.68,3.22-0.04,3.92,1.42
					c0.19,0.63,0.28,1.3,0.27,1.96c0,4.57,0,9.17,0,13.74"/>
				<path class="st2" d="M220.48,136.1h4.1c1.13,0,1.4-0.21,1.75-1.13c1.57-4.07,2.97-8.16,4.69-12.23l3.74-9.68
					c0.15-0.41,0.33-0.81,0.53-1.19c0.5-0.82,1.45-1.28,2.4-1.16c0.95-0.04,1.83,0.52,2.2,1.4c0.14,0.47,0.21,0.96,0.21,1.45v24.64
					c0,1.28,0,2.55,0,3.83c-0.01,0.49-0.1,0.97-0.27,1.42c-0.48,1.06-1.53,1.75-2.7,1.75h-35.32c-0.94,0.02-1.81-0.52-2.23-1.37
					c-0.41-0.74-0.23-1.66,0.42-2.2l3.32-2.79c0.24-0.22,0.5-0.42,0.77-0.59c1.2-0.7,1.89-2.03,1.78-3.41c0-23.51,0-47.02,0-70.53
					v-0.92c0-0.84-0.41-1.63-1.1-2.11c-1.48-1.17-2.94-2.35-4.36-3.56c-0.41-0.32-0.72-0.74-0.92-1.22c-0.42-1.4,0.74-2.61,2.49-2.7
					h22.47c0.94-0.04,1.83,0.45,2.29,1.28c0.47,0.75,0.3,1.73-0.39,2.29c-0.74,0.68-1.51,1.31-2.32,1.96
					c-0.8,0.65-1.72,1.42-2.61,2.11c-0.51,0.37-0.83,0.95-0.86,1.57c0,0.47,0,0.95,0,1.45v71.62H220.48z"/>
			</g>
		</g>
	</g>
</g>
</svg>
